<?xml version="1.0" encoding="UTF-8"?>
<svg xmlns="http://www.w3.org/2000/svg" xmlns:xlink="http://www.w3.org/1999/xlink" width="512" height="512" viewBox="0 0 60 60" version="1.1"><!-- Generator: Sketch 51.3 (57544) - http://www.bohemiancoding.com/sketch --><title>037 - Web Growth</title><desc>Created with Sketch.</desc><defs/><g id="Page-1" stroke="none" stroke-width="1" fill="none" fill-rule="evenodd"><g id="037---Web-Growth" fill="#000000" fill-rule="nonzero"><path d="M16.051,29 L21.028,29 C21.0781956,27.2154958 21.303951,25.4402677 21.702,23.7 C20.5501029,23.3105731 19.442346,22.8011055 18.397,22.18 C17.0285718,24.2073277 16.2193308,26.5598528 16.051,29 Z" id="Shape"/><path d="M18.4,37.825 C19.4454594,37.2041104 20.553193,36.6946535 21.705,36.305 C21.306951,34.5647323 21.0811956,32.7895042 21.031,31.005 L16.051,31.005 C16.2202254,33.445429 17.0305089,35.7979763 18.4,37.825 Z" id="Shape"/><path d="M22.253,21.775 C22.7847033,20.0821303 23.5959021,18.4901527 24.653,17.065 C22.7464039,17.862237 21.0391668,19.0702779 19.653,20.603 C20.48188,21.072596 21.3522165,21.464917 22.253,21.775 Z" id="Shape"/><path d="M22.253,38.225 C21.3521412,38.534893 20.4817875,38.9272217 19.653,39.397 C21.0393641,40.9294997 22.746548,42.137503 24.653,42.935 C23.5961104,41.5097183 22.7849301,39.917777 22.253,38.225 Z" id="Shape"/><path d="M31,16.167 L31,22.967 C32.6219012,22.9139155 34.2343503,22.6978279 35.813,22.322 C34.724,19.083 32.982,16.765 31,16.167 Z" id="Shape"/><path d="M29,16.167 C27.018,16.767 25.276,19.082 24.187,22.324 C25.765577,22.7003714 27.3780474,22.9167969 29,22.97 L29,16.167 Z" id="Shape"/><path d="M31,43.833 C32.982,43.233 34.724,40.918 35.813,37.676 C34.234423,37.2996286 32.6219526,37.0832031 31,37.03 L31,43.833 Z" id="Shape"/><path d="M29,31 L23.026,31 C23.0822479,32.5988144 23.2905201,34.1886478 23.648,35.748 C25.4024978,35.32506 27.1960465,35.0847808 29,35.031 L29,31 Z" id="Shape"/><path d="M37.747,21.775 C38.6478588,21.465107 39.5182125,21.0727783 40.347,20.603 C38.9606359,19.0705003 37.253452,17.862497 35.347,17.065 C36.4038896,18.4902817 37.2150699,20.082223 37.747,21.775 Z" id="Shape"/><path d="M29,24.969 C27.1959876,24.9151846 25.4024083,24.6745662 23.648,24.251 C23.2905228,25.810691 23.082251,27.4008559 23.026,29 L29,29 L29,24.969 Z" id="Shape"/><path d="M35.344,42.935 C37.2505961,42.137763 38.9578332,40.9297221 40.344,39.397 C39.51512,38.927404 38.6447835,38.535083 37.744,38.225 C37.2122967,39.9178697 36.4010979,41.5098473 35.344,42.935 Z" id="Shape"/><path d="M43.949,31 L38.972,31 C38.9221319,32.7861794 38.6963745,34.5630983 38.298,36.305 C39.4498971,36.6944269 40.557654,37.2038945 41.603,37.825 C42.9722573,35.7962286 43.7815353,33.4418711 43.949,31 Z" id="Shape"/><path d="M29,43.833 L29,37.033 C27.3780988,37.0860845 25.7656497,37.3021721 24.187,37.678 C25.276,40.917 27.018,43.235 29,43.833 Z" id="Shape"/><path d="M31,35.031 C32.8040124,35.0848154 34.5975917,35.3254338 36.352,35.749 C36.7094772,34.189309 36.917749,32.5991441 36.974,31 L31,31 L31,35.031 Z" id="Shape"/><path d="M31,29 L36.974,29 C36.9177521,27.4011856 36.7094799,25.8113522 36.352,24.252 C34.5975022,24.67494 32.8039535,24.9152192 31,24.969 L31,29 Z" id="Shape"/><path d="M38.3,23.7 C38.6973758,25.4403348 38.9224612,27.2155621 38.972,29 L43.949,29 C43.7806407,26.5578469 42.9703201,24.2034672 41.6,22.175 C40.5563374,22.7973006 39.4502879,23.3084296 38.3,23.7 Z" id="Shape"/><path d="M30.71,0.3 C30.4268987,0.00872395332 29.9939155,-0.0786671465 29.62,0.08 C29.2465745,0.233403598 29.0020151,0.596298114 29,1 L29,2.03 C28.86,2.03 28.7,2.03 28.56,2.04 C28.13,2.06 27.72,2.08 27.35,2.13 C27.1,2.15 26.86,2.18 26.63,2.21 C26.36,2.24 26.09,2.27 25.83,2.31 C25.8246061,2.31543054 25.8175808,2.31894321 25.81,2.32 L25.77,2.32 C25.38,2.38 24.98,2.45 24.61,2.53 L22.83,2.93 C22.76,2.95 22.69,2.97 22.53,3.01 C22.26,3.09 21.98,3.17 21.74,3.25 C21.52,3.31 21.3,3.39 21.05,3.47 C20.86,3.53 20.67,3.6 20.52,3.66 C20.19,3.77 19.86,3.9 19.53,4.04 C19.17,4.18 18.81,4.33 18.46,4.49 C18.26,4.58 18.07,4.67 17.94,4.74 C17.7452558,4.82334831 17.5549968,4.91680889 17.37,5.02 C17.16,5.12 16.95,5.23 16.76,5.34 L16.05,5.73 C15.83,5.86 15.61,5.98 15.43,6.1 C15.15,6.27 14.88,6.43 14.66,6.59 C14.41,6.75 14.17,6.91 13.97,7.05 C13.75,7.2 13.53,7.36 13.33,7.52 L13.18,7.63 C13.09,7.7 13,7.77 12.9,7.84 C12.74,7.96 12.59,8.09 12.46,8.2 C12.2,8.4 11.94,8.61 11.72,8.81 C11.45,9.04 11.19,9.27 10.93,9.51 C10.67,9.75 10.43,9.98 10.21,10.21 C9.99,10.44 9.75,10.68 9.51,10.93 C9.18,11.29 8.86,11.65 8.59,11.97 C8.54,12.03 8.48,12.1 8.44,12.16 C8.13,12.53 7.84,12.89 7.58,13.25 C7.3,13.61 7.04,13.98 6.81,14.32 C6.67,14.52 6.53,14.74 6.43,14.91 C6.30903618,15.0795994 6.19882016,15.256613 6.1,15.44 C5.99763613,15.5822263 5.9073226,15.7327489 5.83,15.89 C5.76082253,15.9930866 5.69739256,16.0999161 5.64,16.21 L5.59,16.3 C5.44,16.56 5.29,16.81 5.2,17.01 C5.15,17.09 5.12,17.17 5.08,17.24 C4.94,17.51 4.82,17.76 4.73,17.95 C4.69,18.02 4.67,18.11 4.63,18.19 C4.60242411,18.2448254 4.57902436,18.3016534 4.56,18.36 C4.56,18.37 4.55,18.38 4.55,18.39 L4.55,18.42 C4.51979242,18.5306353 4.5096322,18.6457845 4.52,18.76 C4.52431263,18.7764558 4.52765175,18.7931514 4.53,18.81 C4.55416879,19.0118978 4.64169068,19.2009451 4.78,19.35 L8.56,23.31 C8.57,23.33 8.59,23.33 8.61,23.35 C8.65762572,23.3867642 8.70774621,23.4201779 8.76,23.45 C8.82566423,23.500334 8.90033423,23.537669 8.98,23.56 C8.99,23.56 9,23.57 9.01,23.58 C9.05622025,23.5879622 9.1031173,23.591312 9.15,23.59 C9.19240862,23.6036524 9.23589739,23.6136882 9.28,23.62 C9.46576566,23.6127706 9.64583841,23.5539007 9.8,23.45 C9.82,23.44 9.83,23.43 9.85,23.42 C9.89223499,23.3968484 9.93238507,23.3700817 9.97,23.34 C10,23.31 10.01,23.28 10.04,23.25 C10.0477266,23.2320706 10.057816,23.2152549 10.07,23.2 C10.129907,23.1248046 10.1771904,23.0403699 10.21,22.95 C10.2485391,22.876955 10.2787294,22.7998022 10.3,22.72 L10.46,22.29 C10.51,22.17 10.55,22.06 10.57,22 C10.5992948,21.9494783 10.6227776,21.8958034 10.64,21.84 C10.6607595,21.8053351 10.6775327,21.768434 10.69,21.73 C10.77,21.53 10.87,21.32 10.98,21.1 C11.04,20.97 11.1,20.83 11.18,20.68 L11.25,20.55 C11.3,20.45 11.35,20.34 11.41,20.23 C11.4304275,20.2022492 11.4472299,20.1720049 11.46,20.14 C11.5,20.08 11.53,20.02 11.54,20.01 C11.5674955,19.9585861 11.5909011,19.9050875 11.61,19.85 C11.6495984,19.7745228 11.6929871,19.7010958 11.74,19.63 C11.77,19.59 11.77,19.58 11.8,19.54 C11.829239,19.4965274 11.8527654,19.4494748 11.87,19.4 C11.9067642,19.3523743 11.9401779,19.3022538 11.97,19.25 C12.0855771,19.0335076 12.2124176,18.8232194 12.35,18.62 C12.47,18.42 12.59,18.25 12.72,18.06 C12.7357217,18.045393 12.7492004,18.0285446 12.76,18.01 C12.76,18 12.77,17.99 12.78,17.98 C13,17.67 13.23,17.36 13.47,17.06 C13.48,17.04 13.5,17.02 13.51,17 C13.72,16.73 13.93,16.47 14.11,16.26 C14.1453525,16.2319038 14.17577,16.1981065 14.2,16.16 C14.2291269,16.1359126 14.2559126,16.1091269 14.28,16.08 C14.43,15.9 14.59,15.72 14.76,15.55 L14.94,15.38 C15.1,15.21 15.27,15.04 15.44,14.88 C15.4824627,14.8425409 15.5225409,14.8024627 15.56,14.76 C15.69,14.63 15.83,14.49 16.01,14.33 L15.34,13.59 L16.11,14.25 L16.35,14.04 C16.49,13.92 16.64,13.8 16.82,13.65 C17,13.5 17.17,13.37 17.39,13.22 C17.51,13.12 17.64,13.03 17.8,12.91 C17.91,12.83 18.02,12.76 18.18,12.66 C18.483678,12.4340835 18.8009416,12.2270272 19.13,12.04 C19.2771394,11.9343476 19.4346112,11.843885 19.6,11.77 C19.8231414,11.6282227 20.0534474,11.4980498 20.29,11.38 C20.32,11.37 20.36,11.34 20.4,11.32 C20.82,11.1 21.26,10.89 21.71,10.7 C22.06,10.56 22.41,10.41 22.78,10.28 C22.82,10.27 22.87,10.25 22.91,10.24 C23.106109,10.1593425 23.3063956,10.0892421 23.51,10.03 C23.67,9.98 23.83,9.93 24.07,9.86 C24.18,9.82 24.3,9.79 24.51,9.73 C24.5611361,9.72136501 24.6113542,9.70797354 24.66,9.69 C24.73,9.67 24.8,9.65 24.88,9.63 L25.39,9.51 C25.63,9.45 25.88,9.41 26.13,9.36 C26.1673874,9.35820635 26.204374,9.35148151 26.24,9.34 C26.3191141,9.3218083 26.3992624,9.30845026 26.48,9.3 L27.09,9.2 C27.22,9.18 27.34,9.17 27.52,9.15 L27.73,9.12 C27.7904477,9.11829236 27.8506517,9.11160303 27.91,9.1 C27.99,9.09 28.07,9.09 28.14,9.08 C28.3,9.07 28.46,9.05 28.72,9.04 C28.81,9.04 28.9,9.03 29,9.03 L29,11 C29.0022605,11.4060407 29.2460626,11.7717439 29.62,11.93 C29.7408103,11.9781669 29.8699563,12.001957 30,12 C30.2656541,12.0007696 30.5208504,11.8965345 30.71,11.71 L35.71,6.71 C36.0977236,6.31996255 36.0977236,5.69003745 35.71,5.3 L30.71,0.3 Z" id="Shape"/><path d="M59,29 L57.98,29 L57.98,28.96 C57.96226,28.2610649 57.9088572,27.5634907 57.82,26.87 C57.78,26.53 57.74,26.19 57.69,25.85 C57.63,25.43 57.55,25.01 57.47,24.59 C57.39,24.17 57.3,23.76 57.2,23.37 C57.1,22.98 57,22.56 56.88,22.16 C56.8,21.87 56.71,21.6 56.62,21.32 L56.51,20.96 C56.37,20.56 56.22,20.16 56.08,19.8 C55.93,19.41 55.76,19.02 55.59,18.64 C55.42,18.26 55.25,17.9 55.06,17.51 C54.89,17.18 54.72,16.85 54.54,16.52 L54.48,16.4 C54.28,16.06 54.08,15.72 53.87,15.37 C53.66,15.04 53.46,14.71 53.26,14.43 C53.2396634,14.3777847 53.2090598,14.330179 53.17,14.29 L53.12,14.21 C52.91,13.92 52.71,13.63 52.5,13.36 C52.27,13.04 52.04,12.73 51.79,12.43 C51.7698476,12.3976559 51.7463883,12.3674939 51.72,12.34 C51.47,12.04 51.22,11.74 50.96,11.44 C50.7,11.14 50.42,10.84 50.13,10.54 L50.12,10.54 C49.87,10.28 49.62,10.03 49.33,9.75 C49,9.44 48.68,9.15 48.34,8.85 C48.04,8.59 47.73,8.33 47.42,8.09 C45.941777,6.91042729 44.3468158,5.88509507 42.66,5.03 C42.38,4.89 42.1,4.74 41.8,4.61 C41.7890075,4.61132315 41.7780001,4.60765403 41.77,4.6 C41.73,4.59 41.7,4.58 41.67,4.57 C41.5888763,4.54171211 41.5051259,4.521612 41.42,4.51 L41.31,4.51 C41.2178976,4.5120462 41.1267276,4.52892954 41.04,4.56 C41.02,4.57 40.99,4.57 40.96,4.58 C40.8388607,4.63072915 40.7272607,4.70174734 40.63,4.79 C40.63,4.8 40.63,4.8 40.62,4.81 L36.69,8.56 C36.69,8.57 36.68,8.57 36.68,8.58 C36.6187911,8.64726911 36.5651376,8.72104271 36.52,8.8 C36.5,8.84 36.48,8.87 36.46,8.91 C36.45,8.93 36.44,8.94 36.43,8.96 C36.4178754,9.02263938 36.4111838,9.08620896 36.41,9.15 C36.3984496,9.19583763 36.3917462,9.24276177 36.39,9.29 C36.3935149,9.37132991 36.4069477,9.45192633 36.43,9.53 C36.440001,9.57755506 36.453368,9.6243395 36.47,9.67 C36.5040386,9.74006695 36.5441944,9.80699324 36.59,9.87 C36.62,9.9 36.63,9.94 36.66,9.97 C36.67,9.98 36.68,9.98 36.69,9.99 C36.7457806,10.0388945 36.8060474,10.0824205 36.87,10.12 C36.9198281,10.1558448 36.9734919,10.1860307 37.03,10.21 C37.04,10.22 37.05,10.22 37.06,10.23 C37.8205061,10.4885792 38.5622671,10.7993169 39.28,11.16 C39.53,11.28 39.78,11.41 40.04,11.56 C40.24,11.67 40.44,11.78 40.68,11.92 C41.3697737,12.3260881 42.0343233,12.7735737 42.67,13.26 C42.87,13.4 43.07,13.56 43.27,13.73 C43.44,13.86 43.6,14 43.77,14.15 C44.26,14.57 44.73,15.03 45.23,15.55 C45.35,15.67 45.46,15.78 45.58,15.92 C46.1205986,16.5158017 46.6248437,17.1436037 47.09,17.8 C47.24,17.99 47.37,18.2 47.53,18.45 C47.77,18.8 48,19.17 48.22,19.55 L48.31,19.71 C48.37,19.82 48.43,19.92 48.49,20.03 C48.65,20.33 48.81,20.63 48.97,20.99 C49.09,21.25 49.21,21.51 49.34,21.81 C49.46,22.08 49.57,22.36 49.7,22.7 C49.88,23.2 50.05,23.72 50.21,24.29 C50.2354086,24.3651529 50.2554588,24.4420121 50.27,24.52 C50.41,25.02 50.53,25.56 50.65,26.2 C50.71,26.48 50.75,26.76 50.79,27.08 C50.8325252,27.2947472 50.8625755,27.5117773 50.88,27.73 C50.89,27.89 50.91,28.06 50.92,28.22 C50.92,28.25 50.93,28.3 50.93,28.33 L50.94,28.47 C50.9605308,28.6459129 50.9705486,28.8228939 50.97,29 L49,29 C48.5952095,28.9984556 48.230513,29.2442294 48.08,29.62 C47.9234033,29.9923971 48.0062554,30.4224393 48.29,30.71 L53.29,35.71 C53.6843361,36.0967403 54.3156639,36.0967403 54.71,35.71 L59.71,30.71 C59.9937446,30.4224393 60.0765967,29.9923971 59.92,29.62 C59.769487,29.2442294 59.4047905,28.9984556 59,29 Z" id="Shape"/><path d="M1,31 L2.03,31 C2.03,31.1 2.03,31.21 2.04,31.31 L2.04,31.45 L2.1,32.41 C2.14,32.77 2.17,33.12 2.22,33.5 C2.25,33.74 2.28,33.99 2.32,34.22 C2.38,34.63 2.45,35.02 2.53,35.39 L2.59,35.72 C2.62,35.86 2.65,36 2.67,36.07 L2.72,36.26 C2.76,36.45 2.8,36.63 2.84,36.81 C2.84992448,36.867415 2.86328177,36.9241835 2.88,36.98 C3.01,37.49 3.15,38 3.3,38.43 C3.34,38.56 3.38,38.69 3.43,38.83 L3.67,39.52 C3.67886253,39.5581414 3.69229284,39.5950748 3.71,39.63 L3.79,39.86 C3.87,40.06 3.94,40.25 4.05,40.5 C4.09623964,40.6327984 4.1496515,40.7629898 4.21,40.89 C4.90828372,42.5559667 5.77264916,44.1473372 6.79,45.64 C7.04,46.02 7.3,46.39 7.57,46.74 C7.84,47.09 8.12,47.46 8.41,47.8 C8.7,48.14 8.99,48.48 9.29,48.81 C9.59,49.14 9.9,49.48 10.21,49.79 C10.52,50.1 10.86,50.41 11.19,50.71 C11.52,51.01 11.85,51.3 12.19,51.58 C12.54,51.88 12.9,52.16 13.25,52.42 C13.61,52.7 13.98,52.96 14.35,53.21 C14.72,53.46 15.11,53.71 15.48,53.93 C15.77,54.11 16.07,54.28 16.37,54.44 C16.4464999,54.4953936 16.5266856,54.5455097 16.61,54.59 C16.6420049,54.6027701 16.6722492,54.6195725 16.7,54.64 L16.96,54.77 C17.19,54.89 17.42,55.01 17.73,55.17 C17.83,55.21 17.92,55.26 18.01,55.3 C18.1,55.34 18.17,55.37 18.24,55.4 C18.2818076,55.4178638 18.3253816,55.4312712 18.37,55.44 C18.3780001,55.447654 18.3890075,55.4513232 18.4,55.45 C18.4149873,55.4590705 18.4326769,55.4626084 18.45,55.46 C18.5178292,55.4829204 18.5884944,55.4963805 18.66,55.5 C18.8338345,55.494877 19.0030866,55.4430651 19.15,55.35 C19.21,55.32 19.26,55.29 19.31,55.26 C19.32,55.24 19.34,55.24 19.35,55.23 L23.31,51.45 C23.3568011,51.3948235 23.3970683,51.3344227 23.43,51.27 L23.46,51.24 C23.6620179,50.918084 23.6581125,50.50801 23.45,50.19 L23.43,50.17 C23.4093615,50.1201378 23.3824802,50.0730955 23.35,50.03 C23.3072491,49.9943063 23.2602208,49.9640738 23.21,49.94 C23.1825061,49.9136117 23.1523441,49.8901524 23.12,49.87 C23.0538799,49.8316524 22.983369,49.8014335 22.91,49.78 C22.87,49.77 22.84,49.74 22.81,49.74 C22.7677246,49.7177832 22.7243339,49.6977567 22.68,49.68 C22.3156473,49.5565873 21.9584305,49.4130329 21.61,49.25 L21.29,49.11 C21.2542167,49.0914546 21.2175013,49.0747658 21.18,49.06 C21.0638039,49.012975 20.9502972,48.9595601 20.84,48.9 C20.8247451,48.887816 20.8079294,48.8777266 20.79,48.87 L20.73,48.84 C20.29,48.62 19.85,48.4 19.39,48.13 C19.15,47.99 18.91,47.85 18.61,47.65 C18.4,47.52 18.2,47.38 18,47.24 C17.98,47.22 17.96,47.21 17.94,47.19 C17.77,47.08 17.63,46.97 17.44,46.83 C17.3722425,46.7821532 17.3086798,46.7286267 17.25,46.67 C17.19,46.62 17.09,46.55 17.03,46.51 C16.985816,46.4702792 16.9390467,46.4335319 16.89,46.4 C16.76,46.31 16.62,46.19 16.49,46.08 C16.4375404,46.0360403 16.3874689,45.9893069 16.34,45.94 C16.31,45.92 16.29,45.9 16.26,45.88 C16.01,45.67 15.77,45.45 15.48,45.17 C15.22,44.92 14.97,44.66 14.72,44.4 C14.7,44.37 14.62,44.3 14.6,44.27 C14.5590051,44.2275387 14.5156,44.1874725 14.47,44.15 C14.44,44.12 14.41,44.08 14.31,43.97 C14,43.62 13.7,43.26 13.44,42.91 C13.4096349,42.8612829 13.3762356,42.8145239 13.34,42.77 C13.2,42.6 13.07,42.42 12.93,42.23 L12.75,41.97 C12.6400295,41.833887 12.5397815,41.6901983 12.45,41.54 L12.37,41.4 C12.17,41.11 11.98,40.8 11.78,40.44 C11.67,40.26 11.58,40.08 11.48,39.9 L11.38,39.73 C11.3593988,39.6738436 11.3325644,39.6201748 11.3,39.57 C11.15,39.26 11,38.95 10.85,38.61 C10.7,38.29 10.56,37.97 10.43,37.63 C10.4256874,37.6135442 10.4223483,37.5968486 10.42,37.58 C10.28,37.23 10.15,36.87 10.01,36.45 C10.0012085,36.4086266 9.98779084,36.3683736 9.97,36.33 C9.93,36.19 9.88,36.05 9.84,35.91 L9.8,35.75 C9.79,35.72 9.79,35.7 9.78,35.67 C9.72,35.47 9.66,35.26 9.61,35.06 L9.54,34.69 C9.49742826,34.5523619 9.46402177,34.4120547 9.44,34.27 C9.37,33.97 9.32,33.67 9.27,33.36 C9.23,33.11 9.19,32.86 9.16,32.61 L9.16,32.58 C9.1621145,32.5430407 9.15874462,32.5059721 9.15,32.47 C9.12,32.29 9.11,32.1 9.08,31.85 C9.07,31.69 9.06,31.53 9.05,31.42 L9.05,31.29 C9.03766202,31.1938082 9.03098386,31.0969748 9.03,31 L11,31 C11.4047905,31.0015444 11.769487,30.7557706 11.92,30.38 C12.0765967,30.0076029 11.9937446,29.5775607 11.71,29.29 L6.71,24.29 C6.3156639,23.9032597 5.6843361,23.9032597 5.29,24.29 L0.29,29.29 C0.00625543785,29.5775607 -0.0765967301,30.0076029 0.08,30.38 C0.230512953,30.7557706 0.595209506,31.0015444 1,31 Z" id="Shape"/><path d="M29.3,59.71 C29.4852701,59.8962278 29.7373113,60.0006448 30,60 C30.1332203,60.0011034 30.2654791,59.9773646 30.39,59.93 C30.7616117,59.7705891 31.0018291,59.404356 31,59 L31,57.97 C31.12,57.97 31.24,57.97 31.36,57.96 C31.77,57.94 32.17,57.92 32.53,57.88 C32.84,57.86 33.15,57.82 33.42,57.79 C33.67,57.76 33.91,57.73 34.16,57.69 C34.1764558,57.6856874 34.1931514,57.6823483 34.21,57.68 C34.62,57.63 35.02,57.55 35.38,57.48 C35.58,57.44 35.78,57.4 35.94,57.36 C36.26,57.3 36.58,57.22 36.89,57.14 L37.46,56.99 C37.96,56.86 38.45,56.7 38.93,56.54 L39.46,56.35 C39.73,56.27 40.01,56.16 40.28,56.05 C40.3091422,56.0348148 40.3392002,56.0214557 40.37,56.01 C40.74,55.86 41.1,55.71 41.45,55.55 C41.77,55.41 42.1,55.25 42.36,55.12 C42.68,54.98 43,54.8 43.32,54.62 L43.33,54.61 L43.78,54.37 C44.15,54.17 44.52,53.94 44.87,53.72 C45.22,53.5 45.57,53.27 45.91,53.03 C46.12,52.88 46.33,52.73 46.46,52.62 C46.6121004,52.5294057 46.7559824,52.4256768 46.89,52.31 C47.040196,52.2136352 47.1808358,52.1031326 47.31,51.98 C48.1812912,51.3095489 49.0064879,50.5812376 49.78,49.8 C50.11,49.48 50.43,49.14 50.71,48.82 C51.3155415,48.1601472 51.8863142,47.4692118 52.42,46.75 C52.7,46.39 52.96,46.02 53.21,45.65 C53.34,45.46 53.46,45.27 53.57,45.09 C53.71,44.89 53.84,44.68 53.93,44.52 C54.17,44.13 54.4,43.74 54.62,43.33 C54.83,42.94 55.03,42.54 55.26,42.07 L55.35,41.89 L55.42,41.74 C55.4274644,41.7174458 55.4308507,41.6937421 55.43,41.67 C55.4732464,41.5686836 55.4969948,41.4601192 55.5,41.35 C55.5,41.34 55.49,41.33 55.49,41.32 C55.4895127,41.0702547 55.3928145,40.8303001 55.22,40.65 L51.44,36.69 C51.44,36.68 51.43,36.68 51.42,36.67 C51.3674959,36.6244067 51.3105431,36.5842047 51.25,36.55 C51.2,36.52 51.14,36.48 51.08,36.45 C51.07,36.45 51.07,36.44 51.06,36.44 C51.0107756,36.4284371 50.9605343,36.4217383 50.91,36.42 C50.8417439,36.4002448 50.7710573,36.3901467 50.7,36.39 C50.6387723,36.3901983 50.5779824,36.4003299 50.52,36.42 C50.3836459,36.435899 50.2549763,36.4915399 50.15,36.58 C50.107765,36.6031516 50.0676149,36.6299183 50.03,36.66 C50.02,36.66 50.02,36.67 50.01,36.68 C49.9642508,36.7302448 49.927087,36.7876797 49.9,36.85 C49.8576252,36.9027623 49.8207661,36.9597262 49.79,37.02 C49.79,37.03 49.78,37.03 49.78,37.04 C49.59,37.58 49.39,38.08 49.17,38.55 C49.08,38.77 48.99,38.98 48.88,39.2 C48.79,39.39 48.69,39.59 48.58,39.78 C48.57,39.8 48.54,39.86 48.52,39.89 C48.5,39.92 48.47,39.98 48.46,40 C48.36,40.2 48.25,40.4 48.16,40.55 L47.96,40.88 C47.87,41.04 47.77,41.19 47.68,41.34 L47.26,41.97 L46.84,42.55 C46.75,42.67 46.65,42.8 46.52,42.96 C46.5,42.99 46.47,43.02 46.45,43.05 C46.29,43.26 46.12,43.46 45.94,43.67 C45.7,43.96 45.44,44.23 45.17,44.52 C44.94,44.76 44.69,45 44.45,45.23 C44.435393,45.2457217 44.4185446,45.2592004 44.4,45.27 L44.37,45.3 C44.2738144,45.4040349 44.1702092,45.5009558 44.06,45.59 C43.88,45.75 43.7,45.92 43.47,46.1 C43.0151136,46.494143 42.537637,46.8614327 42.04,47.2 C41.82,47.35 41.61,47.5 41.36,47.65 C41.21,47.75 41.06,47.85 40.91,47.94 C40.88,47.96 40.84,47.98 40.8,48.01 C40.74856,48.051513 40.6912765,48.0852091 40.63,48.11 C40.27,48.32 39.89,48.53 39.5,48.73 C39.21,48.88 38.93,49.01 38.59,49.16 C38.2586807,49.3231112 37.9180983,49.4666901 37.57,49.59 C37.22,49.73 36.88,49.85 36.45,49.99 C36.41,50 36.37,50.02 36.25,50.05 C36.1,50.1 35.94,50.15 35.76,50.2 C35.7037379,50.211093 35.6496833,50.2313635 35.6,50.26 L35.93,51.01 L35.97,51.18 L35.6,50.26 L35.59,50.25 C35.32,50.32 35.04,50.39 34.7,50.46 C34.400128,50.5389069 34.0963927,50.6023242 33.79,50.65 C33.4897105,50.7169785 33.1858998,50.7670572 32.88,50.8 C32.54,50.85 32.2,50.88 31.8,50.92 C31.68,50.93 31.57,50.95 31.34,50.96 C31.27,50.96 31.2,50.97 31.08,50.97 L31,50.97 L31,49 C31.0015503,48.5981555 30.7607555,48.2349895 30.39,48.08 C30.0161749,47.9204459 29.5826739,48.0079415 29.3,48.3 L24.3,53.3 C24.1093343,53.4830811 24.0010824,53.735669 24,54 C24.0011094,54.2672459 24.1091444,54.5229286 24.3,54.71 L29.3,59.71 Z" id="Shape"/></g></g></svg>
