<svg xmlns="http://www.w3.org/2000/svg" xmlns:xlink="http://www.w3.org/1999/xlink" viewBox="0 0 359.88 81.93"><defs><style>.cls-1{fill:url(#linear-gradient);}.cls-2{fill:#2684ff;}.cls-3{fill:#253858;}</style><linearGradient id="linear-gradient" x1="11.32" y1="39.45" x2="37.52" y2="45.17" gradientUnits="userSpaceOnUse"><stop offset="0" stop-color="#0052cc"/><stop offset="1" stop-color="#2684ff"/></linearGradient></defs><title>Jira Ops-blue-rgb</title><g id="Layer_2" data-name="Layer 2"><g id="Layer_1-2" data-name="Layer 1"><path class="cls-1" d="M42.6,20.82,6.85,53.63c.51.51,1,1,1.59,1.47L22.55,67a2.86,2.86,0,0,0,3.68,0c2.54-2.16,7.51-6.36,13.42-11.34C51,46.07,52,32,42.6,20.82Z"/><path class="cls-2" d="M6.41,20.83c-8.78,9.75-8.46,23.89.44,32.8L24.42,37.51C35.17,27.64,36,10,25.39,0,25.39,0,15.19,11.08,6.41,20.83Z"/><path class="cls-3" d="M95,7h7.92V47.17c0,10.65-4.66,18-15.57,18a28.23,28.23,0,0,1-9.51-1.49V56A22.19,22.19,0,0,0,86,57.47c6.69,0,9-4,9-9.77Z"/><path class="cls-3" d="M117.27,3.87a4.94,4.94,0,0,1,5.28,5.28,5.28,5.28,0,0,1-10.56,0A4.94,4.94,0,0,1,117.27,3.87Zm-3.88,16.9H121v44h-7.57Z"/><path class="cls-3" d="M140,64.77h-7.39v-44H140v7.74c2.55-5.19,6.95-8.88,15.58-8.36v7.4c-9.68-1-15.58,1.93-15.58,11.26Z"/><path class="cls-3" d="M191,56.85c-2.82,5.81-8.1,8.8-14.87,8.8-11.71,0-17.6-9.94-17.6-22.88,0-12.41,6.16-22.88,18.48-22.88,6.42,0,11.35,2.9,14,8.62V20.77h7.57v44H191Zm-12.85,1.76c6.78,0,12.85-4.31,12.85-14.08V41c0-9.77-5.55-14.08-12-14.08-8.54,0-12.94,5.63-12.94,15.84C166.1,53.33,170.33,58.61,178.16,58.61Z"/><path class="cls-3" d="M217.06,35.73c0-17.42,10-29.66,27.89-29.66s27.81,12.24,27.81,29.66c0,17.6-10,29.92-27.81,29.92S217.06,53.33,217.06,35.73Zm7.92,0c0,12.23,5.72,22.35,20,22.35S264.84,48,264.84,35.73c0-12-5.72-22.09-19.89-22.09S225,23.76,225,35.73Z"/><path class="cls-3" d="M289.13,57V81.93h-7.57V20.77h7.57v7.92c2.81-5.81,8.09-8.8,14.87-8.8,11.7,0,17.6,9.94,17.6,22.88,0,12.41-6.16,22.88-18.48,22.88C296.7,65.65,291.77,62.74,289.13,57ZM302,26.93c-6.77,0-12.84,4.31-12.84,14.08v3.52c0,9.77,5.54,14.08,12,14.08C309.63,58.61,314,53,314,42.77,314,32.21,309.81,26.93,302,26.93Z"/><path class="cls-3" d="M343.33,65.65A33.9,33.9,0,0,1,328,62.39v-8a34.42,34.42,0,0,0,15.67,4.31c5.8,0,8.8-2.38,8.8-5.81s-2.56-5.28-10.92-7.3c-9.76-2.38-13.9-6.16-13.9-13.38,0-7.66,5.9-12.32,15.93-12.32a31.27,31.27,0,0,1,14.17,3.17v7.83c-5.28-2.64-9.6-4.05-14.26-4.05-5.54,0-8.54,1.94-8.54,5.37,0,3.08,2.12,5,10.21,6.95,9.77,2.38,14.7,6,14.7,13.64C359.88,60.1,355.13,65.65,343.33,65.65Z"/></g></g></svg>